<svg xmlns="http://www.w3.org/2000/svg" viewBox="0 0 1642.22 2029.95"><defs><style>.cls-1{fill:none;stroke:#7c3aed;stroke-miterlimit:10;stroke-width:9px;}</style></defs><title>hexagoons</title><g id="Layer_2" data-name="Layer 2"><g id="Layer_2-2" data-name="Layer 2"><polygon class="cls-1" points="1225.55 888.04 1138.8 612.77 857.03 550.27 662.02 763.04 748.78 1038.3 1030.54 1100.81 1225.55 888.04"/><polygon class="cls-1" points="691.85 1061.89 605.09 786.63 323.33 724.13 128.32 936.89 215.07 1212.16 496.84 1274.66 691.85 1061.89"/><polygon class="cls-1" points="568.6 1599.27 481.85 1324 200.08 1261.5 5.07 1474.27 91.83 1749.53 373.59 1812.03 568.6 1599.27"/><polygon class="cls-1" points="1516.83 1812.22 1430.07 1536.96 1148.31 1474.46 953.3 1687.22 1040.05 1962.49 1321.82 2024.99 1516.83 1812.22"/><polygon class="cls-1" points="809.45 515.91 722.69 240.64 440.93 178.14 245.92 390.91 332.67 666.17 614.44 728.67 809.45 515.91"/><polygon class="cls-1" points="1343.52 342.72 1256.76 67.46 975 4.96 779.99 217.72 866.74 492.99 1148.51 555.49 1343.52 342.72"/><polygon class="cls-1" points="1099.52 1436.28 1012.76 1161.01 731 1098.51 535.99 1311.28 622.75 1586.54 904.51 1649.04 1099.52 1436.28"/><polygon class="cls-1" points="1637.14 1270.23 1550.39 994.97 1268.62 932.46 1073.61 1145.23 1160.37 1420.49 1442.13 1483 1637.14 1270.23"/></g></g></svg>