<?xml version="1.0" encoding="UTF-8"?><svg id="Camada_1" xmlns="http://www.w3.org/2000/svg" viewBox="0 0 750 1000"><defs><style>.cls-1{fill:#1c82ad;}.cls-2{fill:#0c134f;}</style></defs><path class="cls-2" d="m161.48,896.85l-1.92,1.67c-2.59,2.26-5.45,4.3-8.53,6.07-3.03,1.74-6.19,3.24-9.4,4.43-3.19,1.2-6.43,2.13-9.64,2.76-3.27.65-6.33.98-9.12.98-5.94,0-11.37-.78-16.11-2.32-4.97-1.63-9.18-4.27-12.55-7.89-3.34-3.58-5.87-8.29-7.54-14.03-1.6-5.51-2.41-12.37-2.41-20.37v-123.94h25.25v123.94c0,10.32,2.05,14.99,3.8,17.1,2.37,2.9,5.9,4.3,10.82,4.3,3.74,0,7.64-.75,11.57-2.25,3.96-1.51,10.6-5.13,13.88-7.86l2.76-2.32c.24.92.5,1.82.77,2.72,1.91,6.34,4.72,12.03,8.37,17Z"/><path class="cls-2" d="m272.73,805.18c-4.85-5.66-11.03-10.21-18.35-13.51-7.31-3.29-16.07-4.96-26.04-4.96-18.65,0-33.26,5.78-43.44,17.17-10.07,11.27-15.18,26.66-15.18,45.75,0,8.61,1.16,16.81,3.43,24.35,2.32,7.69,5.95,14.46,10.79,20.1,4.86,5.67,11.08,10.22,18.48,13.52,7.38,3.29,16.1,4.95,25.92,4.95,9.17,0,17.51-1.5,24.79-4.45,7.33-2.98,13.6-7.29,18.63-12.8,5-5.49,8.84-12.21,11.4-19.98,2.52-7.66,3.8-16.3,3.8-25.68,0-8.6-1.16-16.79-3.44-24.35-2.32-7.69-5.95-14.45-10.79-20.1Zm-68.68,13.78c5.32-6.54,13.22-9.71,24.17-9.71,5.94,0,10.98,1.13,14.98,3.37,4.06,2.27,7.44,5.32,10.03,9.05,2.66,3.83,4.59,8.17,5.76,12.9,1.2,4.89,1.81,9.96,1.81,15.05,0,13.52-2.79,23.8-8.29,30.55-5.4,6.61-13.34,9.83-24.29,9.83-5.94,0-10.98-1.13-14.99-3.37-4.05-2.26-7.38-5.3-9.89-9.02-2.6-3.83-4.5-8.22-5.67-13.04-1.2-4.96-1.81-9.99-1.81-14.95,0-13.68,2.75-24,8.19-30.67Z"/><path class="cls-2" d="m410.32,796.6c-5.02-2.51-11.21-4.8-18.4-6.81-7.31-2.04-16.8-3.07-28.23-3.07-9.13,0-17.55,1.41-25.02,4.19-7.55,2.81-14.08,6.94-19.41,12.26-5.34,5.34-9.47,12.04-12.28,19.9-2.77,7.74-4.17,16.68-4.17,26.56,0,9.27,1.36,17.86,4.05,25.52,2.72,7.77,6.8,14.54,12.12,20.09,5.34,5.58,12.08,9.92,20.02,12.89,7.84,2.93,16.98,4.42,27.17,4.42,6.09,0,11.85-.56,17.15-1.66,5.26-1.1,10.13-2.58,14.45-4.39,4.3-1.79,8.16-3.75,11.48-5.8,3.29-2.03,6.1-4.05,8.37-5.99l2.38-2.04-11.81-19.58-3.32,2.93c-4.15,3.66-9.43,6.68-15.67,8.96-6.27,2.29-12.8,3.45-19.41,3.45-6.18,0-11.88-.92-16.95-2.73-5-1.79-9.33-4.35-12.86-7.62-3.49-3.23-6.23-7.24-8.12-11.93-1.92-4.74-2.9-10.26-2.9-16.4,0-13.99,3.27-24.23,9.72-30.42,6.49-6.23,16.73-9.4,30.44-9.4,3.64,0,7.38.39,11.12,1.16,2.88.6,5.65,1.31,8.25,2.11v22.49h23.66v-38.19"/><path class="cls-2" d="m538.23,789.43v80.77c0,6.04.31,11.93.93,17.55h15.57v22.08h-37.55l-.47-13.36c-3.21,3.61-6.93,6.76-11.13,9.4-7.03,4.43-15.58,6.67-25.41,6.67-7.27,0-13.6-.86-18.83-2.55-5.56-1.8-10.2-4.98-13.8-9.45-3.49-4.33-6.09-10.12-7.71-17.2-1.56-6.78-2.35-15.31-2.35-25.35v-68.57h25.25v64.95c0,6.01.26,11.47.77,16.22.47,4.45,1.45,8.22,2.9,11.21,1.31,2.7,3.18,4.68,5.72,6.05,2.65,1.43,6.4,2.16,11.14,2.16,6.9,0,12.74-2.21,17.84-6.75,5.13-4.56,9.13-10.33,11.88-17.16v-76.68h25.25Z"/><path class="cls-2" d="m659.05,853.91c-15.89-18.08-45.28-15.76-65.13-25.35-3.89-1.88-4.47-8.25-2.08-11.68,4.88-6.28,11.9-7.7,19.53-8.46,15.12-1.51,24.39-.64,42.33,4.68l6.09-18.35c-19.34-7.24-41.09-11.04-64.22-6.01-20.82,4.53-35.79,24.92-29.42,43.44,2.31,6.72,7.29,12.13,13.35,15.83,12.85,7.85,30.12,9.56,44,13.66,5.13,1.46,9.45,3.41,12.86,5.8,6.88,4.64,5.72,15.53-3.29,20.03-11.77,5.89-38.45,2.77-57.24-4.56l-7.6,19.86c24.2,10.2,62.53,14.83,83.77-1.25,14.17-10.73,18.8-34.43,7.05-47.62Z"/><rect class="cls-1" x="84.27" y="84.96" width="545.63" height="545.36"/><rect class="cls-2" x="454.99" y="84.96" width="210.74" height="333.35"/><rect class="cls-2" x="454.99" y="465.09" width="210.74" height="201.33"/><polygon class="cls-2" points="84.27 450.93 407.38 255.64 407.38 84.96 84.27 84.96 84.27 450.93"/><polygon class="cls-2" points="84.27 666.42 407.38 666.42 407.38 312.59 84.27 507.85 84.27 666.42"/></svg>