<?xml version="1.0" encoding="UTF-8"?><svg id="Camada_1" xmlns="http://www.w3.org/2000/svg" viewBox="0 0 1565.66 410.75"><defs><style>.cls-1{fill:#1c82ad;}.cls-2{fill:#0c134f;}</style></defs><path class="cls-2" d="m604.99,329.07l-3.45,3c-4.64,4.06-9.79,7.72-15.31,10.91-5.44,3.13-11.12,5.81-16.88,7.96-5.73,2.15-11.54,3.82-17.3,4.96-5.87,1.17-11.36,1.75-16.38,1.75-10.67,0-20.41-1.41-28.93-4.17-8.92-2.92-16.48-7.67-22.53-14.17-6-6.42-10.54-14.89-13.54-25.19-2.87-9.9-4.33-22.21-4.33-36.57V55.03h45.33v222.53c0,18.52,3.69,26.91,6.82,30.71,4.25,5.2,10.59,7.72,19.43,7.72,6.71,0,13.72-1.35,20.78-4.03,7.11-2.71,19.03-9.21,24.92-14.12l4.96-4.17c.42,1.65.9,3.26,1.38,4.88,3.42,11.39,8.47,21.6,15.02,30.52Z"/><path class="cls-2" d="m804.74,164.48c-8.71-10.17-19.8-18.33-32.95-24.26-13.13-5.91-28.86-8.91-46.76-8.91-33.48,0-59.72,10.37-78,30.83-18.08,20.24-27.26,47.87-27.26,82.14,0,15.47,2.08,30.18,6.17,43.72,4.17,13.81,10.69,25.96,19.37,36.09,8.73,10.18,19.89,18.35,33.18,24.27,13.25,5.9,28.91,8.89,46.53,8.89,16.47,0,31.45-2.69,44.5-8,13.17-5.35,24.42-13.08,33.45-22.98,8.98-9.85,15.87-21.92,20.47-35.88,4.53-13.75,6.83-29.27,6.83-46.11,0-15.44-2.08-30.15-6.17-43.72-4.17-13.81-10.69-25.95-19.38-36.09Zm-123.32,24.74c9.55-11.74,23.75-17.44,43.4-17.44,10.66,0,19.71,2.04,26.9,6.05,7.29,4.08,13.36,9.55,18.02,16.26,4.77,6.87,8.24,14.67,10.34,23.16,2.16,8.79,3.25,17.88,3.25,27.03,0,24.28-5.01,42.73-14.89,54.86-9.69,11.88-23.96,17.65-43.61,17.65-10.67,0-19.72-2.04-26.91-6.06-7.27-4.06-13.25-9.51-17.76-16.19-4.66-6.88-8.08-14.75-10.18-23.41-2.16-8.91-3.26-17.94-3.26-26.85,0-24.56,4.94-43.09,14.7-55.07Z"/><path class="cls-2" d="m1051.78,149.07c-9.01-4.5-20.12-8.61-33.04-12.23-13.12-3.66-30.17-5.52-50.69-5.52-16.4,0-31.52,2.53-44.93,7.52-13.56,5.05-25.28,12.46-34.84,22.02-9.59,9.58-17.01,21.61-22.05,35.74-4.97,13.9-7.49,29.95-7.49,47.69,0,16.65,2.45,32.07,7.27,45.82,4.89,13.96,12.21,26.1,21.76,36.08,9.59,10.02,21.68,17.81,35.95,23.14,14.08,5.26,30.49,7.93,48.79,7.93,10.93,0,21.29-1,30.79-2.98,9.45-1.98,18.18-4.63,25.95-7.88,7.71-3.22,14.65-6.73,20.62-10.42,5.9-3.65,10.95-7.26,15.03-10.75l4.27-3.65-21.21-35.16-5.96,5.26c-7.46,6.58-16.92,11.99-28.13,16.09-11.25,4.11-22.98,6.2-34.86,6.2-11.09,0-21.33-1.65-30.44-4.9-8.99-3.21-16.75-7.81-23.09-13.68-6.27-5.8-11.18-13.01-14.59-21.43-3.45-8.51-5.2-18.42-5.2-29.45,0-25.12,5.87-43.5,17.45-54.62,11.64-11.19,30.03-16.87,54.65-16.87,6.54,0,13.25.7,19.96,2.09,5.18,1.08,10.14,2.35,14.81,3.79v40.38h42.49v-68.57"/><path class="cls-2" d="m1281.45,136.19v145.03c0,10.85.56,21.42,1.68,31.52h27.95v39.65h-67.42l-.85-23.99c-5.77,6.49-12.45,12.13-19.98,16.88-12.63,7.95-27.98,11.98-45.63,11.98-13.05,0-24.42-1.54-33.81-4.58-9.98-3.23-18.31-8.94-24.78-16.96-6.27-7.78-10.93-18.17-13.84-30.89-2.79-12.18-4.21-27.49-4.21-45.52v-123.11h45.33v116.62c0,10.8.46,20.6,1.37,29.13.85,8,2.6,14.77,5.21,20.13,2.36,4.86,5.71,8.41,10.27,10.86,4.77,2.57,11.49,3.87,20.01,3.87,12.39,0,22.87-3.97,32.03-12.12,9.21-8.19,16.38-18.56,21.33-30.81v-137.67h45.33Z"/><path class="cls-2" d="m1498.38,251.96c-28.54-32.46-81.31-28.29-116.95-45.52-6.99-3.38-8.02-14.82-3.74-20.97,8.76-11.28,21.37-13.82,35.07-15.19,27.16-2.71,43.79-1.15,76.01,8.4l10.94-32.94c-34.73-13.01-73.78-19.82-115.31-10.79-37.37,8.13-64.27,44.74-52.82,77.99,4.15,12.06,13.08,21.78,23.97,28.42,23.08,14.09,54.09,17.16,78.99,24.52,9.2,2.62,16.97,6.13,23.09,10.41,12.36,8.32,10.26,27.88-5.9,35.96-21.14,10.57-69.04,4.97-102.77-8.19l-13.65,35.65c43.46,18.32,112.27,26.63,150.42-2.25,25.44-19.26,33.76-61.81,12.65-85.51Z"/><rect class="cls-1" x="55.27" y="53.09" width="283.43" height="283.29"/><rect class="cls-2" x="247.84" y="53.09" width="109.47" height="173.16"/><rect class="cls-2" x="247.84" y="250.55" width="109.47" height="104.58"/><polygon class="cls-2" points="55.27 243.19 223.11 141.75 223.11 53.09 55.27 53.09 55.27 243.19"/><polygon class="cls-2" points="55.27 355.13 223.11 355.13 223.11 171.33 55.27 272.76 55.27 355.13"/></svg>